# xmcd
#
# Track frame offsets: 
#        150
#        13218
#        25783
#        36708
#        54558
#        66203
#        79112
#        90271
#
# Disc length: 1412 seconds
#
# Revision: 0
# Processed by: cddbd v1.5.1PL2 Copyright (c) Steve Scherf et al.
# Submitted via: ExactAudioCopy v0.95b4
#
DISCID=61058208
DTITLE=Dan Hicks and His Hot Licks - Moody Richard (tape)
DYEAR=1986
DGENRE=Western Swing
TTITLE0=I Feel Like Singing
TTITLE1=I'm An Old Cowhand
TTITLE2=Shorty Falls In Love
TTITLE3=Moody Richard
TTITLE4=Sweetheart (Waitress In A Donut Shop)
TTITLE5=Payday Blues
TTITLE6=My Old Timey Baby
TTITLE7=It's Not My Time To GO
EXTD=
EXTT0=
EXTT1=
EXTT2=
EXTT3=
EXTT4=
EXTT5=
EXTT6=
EXTT7=
PLAYORDER=
